<?xml version="1.0" encoding="UTF-8"?>
<!DOCTYPE svg PUBLIC "-//W3C//DTD SVG 1.1//EN" "http://www.w3.org/Graphics/SVG/1.1/DTD/svg11.dtd">
<!-- Creator: CorelDRAW -->
<svg xmlns="http://www.w3.org/2000/svg" xml:space="preserve" width="224px" height="52px" style="shape-rendering:geometricPrecision; text-rendering:geometricPrecision; image-rendering:optimizeQuality; fill-rule:evenodd; clip-rule:evenodd"
viewBox="0 0 224 51.9996"
 xmlns:xlink="http://www.w3.org/1999/xlink">
 <defs>
  <style type="text/css">
   <![CDATA[
    .fil0 {fill:#84C225}
    .fil1 {fill:#2A284D}
    .fil3 {fill:#0093DD;fill-rule:nonzero}
    .fil2 {fill:#2A284D;fill-rule:nonzero}
   ]]>
  </style>
 </defs>
 <g id="Layer_x0020_1">
  <metadata id="CorelCorpID_0Corel-Layer"/>
  <path class="fil0" d="M34.2723 4.07011c3.77483,-0.708666 7.60635,-1.09489 11.4367,-1.36655l0.434649 -0.0307089 3.12876 0.0389767 -3.05553 0.849219 -0.432287 0.0566933c-1.96655,0.25512 -3.93428,0.505515 -5.88429,0.865754 -6.81619,1.25552 -14.3741,3.5516 -20.197,7.40911 -0.315357,0.209057 -0.636619,0.431105 -0.957881,0.662603 2.7697,-0.348428 5.60319,-0.581106 8.46856,-0.683863 22.6254,-0.812604 38.6601,6.76186 35.8077,16.9147 -2.06931,7.36186 -13.5036,14.0611 -28.2604,17.497 -1.07481,0.250395 -5.13311,1.22954 -6.24099,1.44332 1.11497,-0.289372 5.17326,-1.34292 6.24217,-1.67009 12.1796,-3.72995 21.149,-9.83393 22.7458,-16.4493 2.47443,-10.2497 -13.6808,-17.8548 -36.0747,-16.9832 -1.00867,0.0389767 -2.01143,0.0944889 -3.00829,0.166537 -3.07561,2.29017 -6.16658,5.61382 -6.15831,9.53511 0.00236222,1.58977 0.525594,3.0579 1.38662,4.38192 2.33387,3.5894 6.96147,5.91028 10.8757,7.29336 5.72012,2.02088 12.143,2.91262 18.1867,3.12049l3.64845 0.52087 -3.65199 0.396853c-7.12682,0.193702 -14.7473,-0.448822 -21.6143,-2.43663 -4.71972,-1.36655 -10.5379,-3.83979 -13.4481,-8.01029 -1.03465,-1.48347 -1.67363,-3.15475 -1.68544,-4.97602 -0.0307089,-4.75515 4.1209,-8.61148 7.78588,-11.0198 5.93154,-3.89767 13.5993,-6.228 20.5218,-7.52604z"/>
  <path class="fil1" d="M41.1404 13.5462l-3.61538 37.8593 -3.67444 -36.0546c-6.17721,2.16143 -10.1481,5.52524 -10.1481,9.30243 0,2.92679 2.38584,5.60555 6.3343,7.66895 -8.58195,-1.95119 -14.4627,-5.93508 -14.4627,-10.5308 0,-6.52091 11.8312,-11.8087 26.4191,-11.8087 8.03864,0 15.2387,1.60631 20.0848,4.13861 -3.59058,-0.816147 -7.6536,-1.27678 -11.9564,-1.27678 -3.15357,0 -6.17721,0.248033 -8.98117,0.70158zm-2.98112 -12.9627c2.0445,0 3.70042,1.6571 3.70042,3.70042 0,2.04332 -1.65592,3.7016 -3.70042,3.7016 -2.04332,0 -3.70042,-1.65828 -3.70042,-3.7016 0,-2.04332 1.6571,-3.70042 3.70042,-3.70042z"/>
  <path class="fil2" d="M73.2289 39.0948l3.55514 -23.06 7.79651 0 -2.48033 16.0926c2.87955,-0.175985 5.30791,-1.4256 7.28627,-3.74885 1.97718,-2.32206 3.16892,-4.79649 3.57286,-7.42092 0.600004,-3.88822 -1.01103,-5.83114 -4.83074,-5.83114l-12.619 0 2.85711 -7.00517 12.691 0c3.69924,0 6.41461,1.04765 8.14612,3.14294 1.73151,2.09529 2.33033,5.11185 1.79647,9.04967 -0.427562,3.07916 -1.57678,6.065 -3.44766,8.95518 -1.87206,2.89018 -4.35712,5.25004 -7.45517,7.08076 -3.09805,1.82954 -6.59296,2.7449 -10.4859,2.7449l-6.38272 0z"/>
  <path id="1" class="fil2" d="M101.769 24.971c0.51024,-3.30711 1.75159,-5.59728 3.72522,-6.87288 1.97245,-1.27442 4.21657,-1.91222 6.73115,-1.91222l10.6241 0 -3.53152 22.9088 -6.99808 0c-2.56301,0 -4.69728,-0.694493 -6.40516,-2.0823 -1.70789,-1.38899 -2.91262,-3.18073 -3.61302,-5.3776 -0.70158,-2.19568 -0.878746,-4.41735 -0.532681,-6.66383zm10.5142 -2.57482c-1.06418,0 -1.86379,0.252758 -2.4012,0.757092 -0.537405,0.505515 -0.891739,1.3134 -1.063,2.42364 -0.252758,1.64056 0.02126,3.19963 0.820872,4.67602 0.799612,1.47757 2.03269,2.37994 3.69806,2.70711l1.62875 -10.5639 -2.68348 0z"/>
  <path id="12" class="fil2" d="M123.452 39.0948l3.53034 -22.9088 6.63666 0 -0.204332 1.32521c1.44804,-1.23662 3.17483,-1.85552 5.18153,-1.85552l-1.01576 6.58942c-2.19096,0.100394 -3.85042,0.908274 -4.97838,2.42364l-2.22285 14.4261 -6.92721 0z"/>
  <path id="123" class="fil2" d="M141.296 32.9601c0.484255,0 0.877565,0.0259844 1.18465,0.0767722 0.813785,-0.101576 1.24725,-0.328349 1.30158,-0.682682 0.0472444,-0.302364 -0.187797,-0.895282 -0.703942,-1.77875l-2.29962 -3.90003c-1.16812,-1.9949 -1.63938,-3.72404 -1.41379,-5.18744 0.214962,-1.38899 0.918904,-2.6197 2.11183,-3.69215 1.19174,-1.07363 2.73191,-1.60985 4.61696,-1.60985l5.87484 0 0.781895 5.98351 -3.11931 0c-1.32875,0 -2.0386,0.289372 -2.12836,0.870479 -0.04252,0.277561 0.217324,0.870479 0.778352,1.77993l2.08466 3.4075c1.13859,1.86852 1.58033,3.62247 1.32757,5.26303 -0.248033,1.61576 -0.986227,2.95396 -2.2134,4.0146 -1.22717,1.05946 -2.59018,1.58977 -4.08782,1.58977l-7.18115 0 -0.72284 -6.13469 3.8079 0z"/>
  <path id="1234" class="fil2" d="M153.659 39.0948l4.77405 -30.9734 6.99926 0 -1.24253 8.06462 3.84333 0c2.75553,0 4.64413,0.60591 5.66579,1.81773 1.02166,1.21182 1.29568,3.3579 0.820872,6.43705l-2.18505 14.654 -6.99926 0 2.00789 -13.0253c0.237403,-1.54017 0.23386,-2.53703 -0.01063,-2.99175 -0.243309,-0.454728 -1.06654,-0.681501 -2.4697,-0.681501l-1.63111 0 -2.57364 16.6985 -6.99926 0z"/>
  <path id="12345" class="fil2" d="M177.086 24.971c0.51024,-3.30711 1.75159,-5.59728 3.72522,-6.87288 1.97245,-1.27442 4.21657,-1.91222 6.73115,-1.91222l10.6241 0 -3.53152 22.9088 -6.99808 0c-2.56301,0 -4.69728,-0.694493 -6.40516,-2.0823 -1.70789,-1.38899 -2.91262,-3.18073 -3.61302,-5.3776 -0.70158,-2.19568 -0.878746,-4.41735 -0.532681,-6.66383zm10.5142 -2.57482c-1.06418,0 -1.86379,0.252758 -2.4012,0.757092 -0.537405,0.505515 -0.891739,1.3134 -1.063,2.42364 -0.252758,1.64056 0.02126,3.19963 0.820872,4.67602 0.799612,1.47757 2.03269,2.37994 3.69806,2.70711l1.62875 -10.5639 -2.68348 0z"/>
  <path id="123456" class="fil2" d="M212.491 16.1859c2.75671,0 4.74216,0.524413 5.9587,1.57206 1.21536,1.04765 1.53544,3.45121 0.955519,7.21304l-2.17679 14.1237 -6.99926 0 2.00789 -13.0253c0.229135,-1.48938 0.218505,-2.47443 -0.0342522,-2.95396 -0.252758,-0.479531 -1.06772,-0.719296 -2.44608,-0.719296l-1.63111 0 -2.57364 16.6985 -6.99926 0 3.53152 -22.9088 10.4068 0z"/>
  <polygon class="fil3" points="75.3029,41.7842 74.6167,48.8094 73.5797,48.8094 74.2671,41.7842 "/>
  <path id="1" class="fil3" d="M77.1915 44.1322l-0.0566933 0.529138c0.36142,-0.405121 0.728745,-0.608272 1.1067,-0.608272 0.283467,0 0.500791,0.125198 0.653154,0.379137 0.150001,0.252758 0.225592,0.608272 0.225592,1.063 0,0.133466 -0.00708666,0.274018 -0.0200789,0.421657l-0.279923 2.89254 -0.966149 0 0.271655 -2.79096c0.00944889,-0.0803155 0.0141733,-0.160631 0.0141733,-0.242128 0,-0.461814 -0.0992133,-0.693312 -0.300002,-0.693312 -0.230317,0 -0.500791,0.240947 -0.813785,0.719296l-0.291734 3.00711 -0.96733 0 0.460633 -4.6772 0.963786 0z"/>
  <path id="12" class="fil3" d="M82.2018 44.4759l-0.0755911 1.09961c-0.168899,-0.119292 -0.342522,-0.216143 -0.524413,-0.285829 -0.181891,-0.0708666 -0.3189,-0.105119 -0.41457,-0.105119 -0.141733,0 -0.213781,0.0685044 -0.213781,0.205513 0,0.13819 0.128741,0.343703 0.383861,0.617721 0.292915,0.316538 0.481893,0.578744 0.566933,0.790163 0.0862211,0.211419 0.12756,0.421657 0.12756,0.633075 0,0.422838 -0.113387,0.771265 -0.34016,1.04765 -0.226773,0.274018 -0.517326,0.411027 -0.872841,0.411027 -0.370869,0 -0.7441,-0.140552 -1.12206,-0.421657l0.133466 -1.03702c0.396853,0.218505 0.69095,0.328349 0.887014,0.328349 0.211419,0 0.316538,-0.0862211 0.316538,-0.257482 0,-0.144096 -0.140552,-0.369688 -0.421657,-0.676776 -0.281104,-0.305908 -0.462995,-0.550398 -0.544492,-0.734651 -0.0814966,-0.181891 -0.121654,-0.356695 -0.121654,-0.524413 0,-0.445279 0.113387,-0.809061 0.34016,-1.09017 0.225592,-0.282285 0.517326,-0.422838 0.874022,-0.422838 0.336617,0 0.677958,0.140552 1.02166,0.422838z"/>
  <path id="123" class="fil3" d="M84.4352 43.1472l-0.135828 0.985046 0.714572 0 -0.128741 1.03111 -0.71221 0 -0.188978 1.51418c-0.0141733,0.131103 -0.0236222,0.250395 -0.0236222,0.362601 0,0.412208 0.0968511,0.617721 0.289372,0.617721 0.11693,0 0.303545,-0.0944889 0.558665,-0.281104l0 1.22717c-0.283467,0.197245 -0.559846,0.296459 -0.830321,0.296459 -0.312994,0 -0.561028,-0.144096 -0.740556,-0.431105 -0.181891,-0.285829 -0.270474,-0.656698 -0.270474,-1.11379 0,-0.140552 0.00944889,-0.277561 0.0271655,-0.412208l0.226773 -1.77993 -0.655516 0 0.120473 -1.03111 0.656698 0 0.115749 -0.985046 0.976779 0z"/>
  <path id="1234" class="fil3" d="M85.9624 42.8365c0,-0.199608 0.0496066,-0.367325 0.146458,-0.507878 0.0980322,-0.140552 0.214962,-0.211419 0.353152,-0.211419 0.139371,0 0.257482,0.0708666 0.356695,0.211419 0.0968511,0.140552 0.145277,0.30827 0.145277,0.507878 0,0.200789 -0.0484255,0.370869 -0.145277,0.511421 -0.0992133,0.140552 -0.217324,0.211419 -0.356695,0.211419 -0.13819,0 -0.25512,-0.0708666 -0.353152,-0.211419 -0.0968511,-0.140552 -0.146458,-0.310632 -0.146458,-0.511421zm0.87166 1.29568l-0.45709 4.6772 -0.966149 0 0.45709 -4.6772 0.966149 0z"/>
  <path id="12345" class="fil3" d="M89.1798 43.1472l-0.135828 0.985046 0.714572 0 -0.128741 1.03111 -0.71221 0 -0.188978 1.51418c-0.0141733,0.131103 -0.0236222,0.250395 -0.0236222,0.362601 0,0.412208 0.0968511,0.617721 0.289372,0.617721 0.11693,0 0.303545,-0.0944889 0.558665,-0.281104l0 1.22717c-0.283467,0.197245 -0.559846,0.296459 -0.830321,0.296459 -0.312994,0 -0.561028,-0.144096 -0.740556,-0.431105 -0.181891,-0.285829 -0.270474,-0.656698 -0.270474,-1.11379 0,-0.140552 0.00944889,-0.277561 0.0271655,-0.412208l0.226773 -1.77993 -0.655516 0 0.120473 -1.03111 0.656698 0 0.115749 -0.985046 0.976779 0z"/>
  <path id="123456" class="fil3" d="M93.6692 44.1322l-0.45709 4.6772 -0.966149 0 0.0590555 -0.523232c-0.337798,0.402759 -0.688588,0.603548 -1.05001,0.603548 -0.302364,0 -0.535043,-0.126379 -0.70158,-0.38268 -0.165355,-0.253939 -0.248033,-0.600004 -0.248033,-1.03938 0,-0.115749 0.00708666,-0.237403 0.0177167,-0.367325l0.294097 -2.96813 0.964967 0 -0.24449 2.48506c-0.02126,0.211419 -0.0295278,0.39331 -0.0295278,0.548035 0,0.465358 0.09567,0.698036 0.289372,0.698036 0.248033,0 0.518508,-0.227954 0.811423,-0.682682l0.294097 -3.04845 0.966149 0z"/>
  <path id="1234567" class="fil3" d="M96.0101 43.1472l-0.135828 0.985046 0.714572 0 -0.128741 1.03111 -0.71221 0 -0.188978 1.51418c-0.0141733,0.131103 -0.0236222,0.250395 -0.0236222,0.362601 0,0.412208 0.0968511,0.617721 0.289372,0.617721 0.11693,0 0.303545,-0.0944889 0.558665,-0.281104l0 1.22717c-0.283467,0.197245 -0.559846,0.296459 -0.830321,0.296459 -0.312994,0 -0.561028,-0.144096 -0.740556,-0.431105 -0.181891,-0.285829 -0.270474,-0.656698 -0.270474,-1.11379 0,-0.140552 0.00944889,-0.277561 0.0271655,-0.412208l0.226773 -1.77993 -0.655516 0 0.120473 -1.03111 0.656698 0 0.115749 -0.985046 0.976779 0z"/>
  <path id="12345678" class="fil3" d="M100.123 46.6669l-2.12246 0c-0.0224411,0.369688 0.0366144,0.662603 0.175985,0.881109 0.139371,0.217324 0.328349,0.325987 0.568114,0.325987 0.264569,0 0.666146,-0.15945 1.20001,-0.477169l-0.17008 1.16576c-0.421657,0.224411 -0.79725,0.337798 -1.12796,0.337798 -0.491342,0 -0.88229,-0.205513 -1.17521,-0.620083 -0.292915,-0.411027 -0.439373,-0.962605 -0.439373,-1.65237 0,-0.715753 0.17008,-1.32284 0.512602,-1.82482 0.342522,-0.49961 0.75473,-0.750005 1.24253,-0.750005 0.420475,0 0.758273,0.178348 1.00985,0.539768 0.252758,0.360239 0.379137,0.835045 0.379137,1.4256 0,0.207875 -0.0177167,0.424019 -0.05315,0.64843zm-2.02679 -0.804336l1.13387 0c0.00708666,-0.0566933 0.00944889,-0.113387 0.00944889,-0.17008 0,-0.205513 -0.04252,-0.370869 -0.128741,-0.496066 -0.08504,-0.125198 -0.200789,-0.188978 -0.344884,-0.188978 -0.309451,0 -0.532681,0.284648 -0.66969,0.855124z"/>
  <path id="123456789" class="fil3" d="M104.669 44.0531c0.472444,0 0.858667,0.203151 1.15867,0.609453 0.300002,0.408664 0.450003,0.938983 0.450003,1.59332 0,0.742919 -0.177167,1.37127 -0.5315,1.87915 -0.355514,0.509059 -0.791344,0.76536 -1.31103,0.76536 -0.460633,0 -0.846856,-0.218505 -1.16339,-0.654335 -0.315357,-0.43583 -0.472444,-0.969692 -0.472444,-1.59922 0,-0.707485 0.183072,-1.31694 0.550398,-1.82836 0.367325,-0.511421 0.809061,-0.76536 1.3193,-0.76536zm-0.226773 3.71577c0.24449,0 0.444098,-0.162993 0.600004,-0.485436 0.157088,-0.324805 0.23386,-0.679139 0.23386,-1.06891 0,-0.307089 -0.0590555,-0.556303 -0.177167,-0.746462 -0.119292,-0.188978 -0.27638,-0.283467 -0.472444,-0.283467 -0.257482,0 -0.460633,0.166537 -0.607091,0.49961 -0.14882,0.334254 -0.22323,0.681501 -0.22323,1.04292 0,0.316538 0.0661422,0.568114 0.196064,0.757092 0.129922,0.188978 0.279923,0.284648 0.450003,0.284648z"/>
  <path id="12345678910" class="fil3" d="M109.97 41.9306l-0.107481 1.12087c-0.204332,-0.150001 -0.386223,-0.225592 -0.54213,-0.225592 -0.4252,0 -0.65906,0.43583 -0.700399,1.30631l0.621264 0 -0.101576 1.03111 -0.628351 0 -0.557484 5.69768 -0.963786 0 0.558665 -5.69768 -0.65906 0 0.100394 -1.03111 0.662603 0c0.06378,-0.796069 0.231498,-1.40198 0.506696,-1.81773 0.274018,-0.413389 0.617721,-0.621264 1.03229,-0.621264 0.246852,0 0.506696,0.0791344 0.778352,0.237403z"/>
  <polygon id="1234567891011" class="fil3" points="115.246,41.7842 115.13,42.9617 113.123,42.9617 112.959,44.6165 114.724,44.6165 114.61,45.7917 112.843,45.7917 112.666,47.6366 115.196,47.6366 115.08,48.8094 111.515,48.8094 112.202,41.7842 "/>
  <path id="123456789101112" class="fil3" d="M117.157 44.1322l-0.0566933 0.529138c0.36142,-0.405121 0.728745,-0.608272 1.1067,-0.608272 0.283467,0 0.500791,0.125198 0.653154,0.379137 0.150001,0.252758 0.225592,0.608272 0.225592,1.063 0,0.133466 -0.00708666,0.274018 -0.0200789,0.421657l-0.279923 2.89254 -0.966149 0 0.271655 -2.79096c0.00944889,-0.0803155 0.0141733,-0.160631 0.0141733,-0.242128 0,-0.461814 -0.0992133,-0.693312 -0.300002,-0.693312 -0.230317,0 -0.500791,0.240947 -0.813785,0.719296l-0.291734 3.00711 -0.96733 0 0.460633 -4.6772 0.963786 0z"/>
  <path id="12345678910111213" class="fil3" d="M123.216 44.1322l-0.0897644 1.03111 -0.523232 0c0.0814966,0.245671 0.121654,0.491342 0.121654,0.740556 0,0.47835 -0.121654,0.883471 -0.366144,1.213 -0.24449,0.331892 -0.575201,0.496066 -0.990952,0.496066 -0.211419,0 -0.362601,0.0141733 -0.452365,0.04252 -0.0885833,0.0283467 -0.133466,0.0980322 -0.133466,0.207875 0,0.0602366 0.0283467,0.113387 0.0862211,0.158269 0.0578744,0.0460633 0.295278,0.11693 0.711029,0.2126 0.41457,0.0944889 0.71221,0.264569 0.890557,0.51024 0.18071,0.243309 0.269293,0.546854 0.269293,0.909455 0,1.01576 -0.557484,1.52363 -1.67245,1.52363 -0.51024,0 -0.896463,-0.103938 -1.15631,-0.311813 -0.258663,-0.207875 -0.387404,-0.487799 -0.387404,-0.83977 0,-0.459452 0.26575,-0.810242 0.800793,-1.05001 -0.300002,-0.214962 -0.448822,-0.503153 -0.448822,-0.864573 0,-0.437011 0.218505,-0.725202 0.654335,-0.865754 -0.375593,-0.3189 -0.564571,-0.768903 -0.564571,-1.35237 0,-0.470082 0.133466,-0.879927 0.401578,-1.2319 0.266931,-0.351971 0.612996,-0.529138 1.03583,-0.529138l1.81419 0zm-1.91458 2.61616c0.353152,0 0.529138,-0.335435 0.529138,-1.00631 0,-0.207875 -0.0401578,-0.370869 -0.119292,-0.490161 -0.0803155,-0.119292 -0.19134,-0.179529 -0.330711,-0.179529 -0.353152,0 -0.530319,0.342522 -0.530319,1.02639 0,0.433468 0.150001,0.649611 0.451184,0.649611zm0.537405 3.09215c0,-0.217324 -0.152363,-0.370869 -0.458271,-0.458271l-0.420475 -0.129922c-0.0921266,0 -0.213781,0.0448822 -0.364963,0.132284 -0.152363,0.0885833 -0.229135,0.227954 -0.229135,0.41457 0,0.323624 0.238584,0.483074 0.714572,0.483074 0.268112,0 0.460633,-0.0330711 0.581106,-0.0992133 0.11693,-0.0673233 0.177167,-0.183072 0.177167,-0.342522z"/>
  <path id="1234567891011121314" class="fil3" d="M126.858 44.1322l-0.0897644 1.03111 -0.523232 0c0.0814966,0.245671 0.121654,0.491342 0.121654,0.740556 0,0.47835 -0.121654,0.883471 -0.366144,1.213 -0.24449,0.331892 -0.575201,0.496066 -0.990952,0.496066 -0.211419,0 -0.362601,0.0141733 -0.452365,0.04252 -0.0885833,0.0283467 -0.133466,0.0980322 -0.133466,0.207875 0,0.0602366 0.0283467,0.113387 0.0862211,0.158269 0.0578744,0.0460633 0.295278,0.11693 0.711029,0.2126 0.41457,0.0944889 0.71221,0.264569 0.890557,0.51024 0.18071,0.243309 0.269293,0.546854 0.269293,0.909455 0,1.01576 -0.557484,1.52363 -1.67245,1.52363 -0.51024,0 -0.896463,-0.103938 -1.15631,-0.311813 -0.258663,-0.207875 -0.387404,-0.487799 -0.387404,-0.83977 0,-0.459452 0.26575,-0.810242 0.800793,-1.05001 -0.300002,-0.214962 -0.448822,-0.503153 -0.448822,-0.864573 0,-0.437011 0.218505,-0.725202 0.654335,-0.865754 -0.375593,-0.3189 -0.564571,-0.768903 -0.564571,-1.35237 0,-0.470082 0.133466,-0.879927 0.401578,-1.2319 0.266931,-0.351971 0.612996,-0.529138 1.03583,-0.529138l1.81419 0zm-1.91458 2.61616c0.353152,0 0.529138,-0.335435 0.529138,-1.00631 0,-0.207875 -0.0401578,-0.370869 -0.119292,-0.490161 -0.0803155,-0.119292 -0.19134,-0.179529 -0.330711,-0.179529 -0.353152,0 -0.530319,0.342522 -0.530319,1.02639 0,0.433468 0.150001,0.649611 0.451184,0.649611zm0.537405 3.09215c0,-0.217324 -0.152363,-0.370869 -0.458271,-0.458271l-0.420475 -0.129922c-0.0921266,0 -0.213781,0.0448822 -0.364963,0.132284 -0.152363,0.0885833 -0.229135,0.227954 -0.229135,0.41457 0,0.323624 0.238584,0.483074 0.714572,0.483074 0.268112,0 0.460633,-0.0330711 0.581106,-0.0992133 0.11693,-0.0673233 0.177167,-0.183072 0.177167,-0.342522z"/>
  <path id="123456789101112131415" class="fil3" d="M126.965 48.0251c0,-0.235041 0.0602366,-0.438192 0.175985,-0.609453 0.118111,-0.17008 0.259844,-0.25512 0.4252,-0.25512 0.162993,0 0.303545,0.08504 0.422838,0.25512 0.11693,0.171261 0.177167,0.374412 0.177167,0.609453 0,0.238584 -0.0602366,0.440554 -0.177167,0.610634 -0.119292,0.17008 -0.259844,0.253939 -0.422838,0.253939 -0.165355,0 -0.307089,-0.0838589 -0.4252,-0.253939 -0.115749,-0.17008 -0.175985,-0.37205 -0.175985,-0.610634z"/>
  <path id="12345678910111213141516" class="fil3" d="M134.126 45.657l0.942526 0c-0.177167,0.642524 -0.44646,1.23544 -0.806699,1.77403 0.190159,0.114568 0.402759,0.171261 0.634256,0.171261l0.301183 0 -0.328349 1.2071c-0.109843,0.0602366 -0.239765,0.0909455 -0.390948,0.0909455 -0.407483,0 -0.778352,-0.185434 -1.11733,-0.553941 -0.441735,0.368507 -0.901187,0.553941 -1.38072,0.553941 -0.496066,0 -0.905912,-0.20197 -1.2319,-0.609453 -0.324805,-0.405121 -0.487799,-0.912999 -0.487799,-1.52245 0,-0.600004 0.154725,-1.11024 0.465358,-1.5319 0.310632,-0.421657 0.764179,-0.69095 1.363,-0.812604 -0.00472444,-0.1063 -0.00826777,-0.209057 -0.00826777,-0.305908 0,-0.758273 0.147639,-1.35237 0.439373,-1.78111 0.291734,-0.428743 0.68032,-0.643705 1.16339,-0.643705 0.35079,0 0.638981,0.140552 0.863392,0.420475 0.22323,0.279923 0.336617,0.638981 0.336617,1.07481 0,1.03465 -0.577563,1.69726 -1.73033,1.98545 0.111024,0.61654 0.261025,1.12442 0.448822,1.52481 0.240947,-0.295278 0.41457,-0.642524 0.524413,-1.04174zm-1.08898 -1.47285c0.347247,-0.0944889 0.612996,-0.222049 0.79725,-0.381499 0.185434,-0.158269 0.277561,-0.370869 0.277561,-0.635438 0,-0.181891 -0.0448822,-0.32953 -0.135828,-0.444098 -0.0909455,-0.11693 -0.209057,-0.173623 -0.353152,-0.173623 -0.194883,0 -0.348428,0.0980322 -0.460633,0.294097 -0.111024,0.194883 -0.166537,0.468901 -0.166537,0.817329 0,0.193702 0.0129922,0.368507 0.0413389,0.523232zm-0.825596 1.28741c-0.588193,0.15945 -0.879927,0.55276 -0.879927,1.17521 0,0.333073 0.0779533,0.60591 0.235041,0.820872 0.157088,0.213781 0.356695,0.320081 0.601185,0.320081 0.199608,0 0.412208,-0.0779533 0.635438,-0.235041 -0.294097,-0.670871 -0.491342,-1.36418 -0.591736,-2.08112z"/>
  <polygon id="1234567891011121314151617" class="fil3" points="141.172,41.7842 141.058,42.9617 139.473,42.9617 138.902,48.8094 137.865,48.8094 138.437,42.9617 136.892,42.9617 137.006,41.7842 "/>
  <path id="123456789101112131415161718" class="fil3" d="M143.498 46.6669l-2.12246 0c-0.0224411,0.369688 0.0366144,0.662603 0.175985,0.881109 0.139371,0.217324 0.328349,0.325987 0.568114,0.325987 0.264569,0 0.666146,-0.15945 1.20001,-0.477169l-0.17008 1.16576c-0.421657,0.224411 -0.79725,0.337798 -1.12796,0.337798 -0.491342,0 -0.88229,-0.205513 -1.17521,-0.620083 -0.292915,-0.411027 -0.439373,-0.962605 -0.439373,-1.65237 0,-0.715753 0.17008,-1.32284 0.512602,-1.82482 0.342522,-0.49961 0.75473,-0.750005 1.24253,-0.750005 0.420475,0 0.758273,0.178348 1.00985,0.539768 0.252758,0.360239 0.379137,0.835045 0.379137,1.4256 0,0.207875 -0.0177167,0.424019 -0.05315,0.64843zm-2.02679 -0.804336l1.13387 0c0.00708666,-0.0566933 0.00944889,-0.113387 0.00944889,-0.17008 0,-0.205513 -0.04252,-0.370869 -0.128741,-0.496066 -0.08504,-0.125198 -0.200789,-0.188978 -0.344884,-0.188978 -0.309451,0 -0.532681,0.284648 -0.66969,0.855124z"/>
  <path id="12345678910111213141516171819" class="fil3" d="M147.162 44.2184l-0.122836 1.25316c-0.168899,-0.0885833 -0.289372,-0.144096 -0.357877,-0.168899 -0.0673233,-0.0259844 -0.183072,-0.0377955 -0.342522,-0.0377955 -0.327168,0 -0.598823,0.137009 -0.820872,0.413389 -0.219687,0.27638 -0.331892,0.61654 -0.331892,1.02048 0,0.337798 0.07441,0.600004 0.22323,0.787801 0.146458,0.187797 0.354333,0.282285 0.622445,0.282285 0.261025,0 0.565752,-0.102757 0.920085,-0.307089l-0.114568 1.26733c-0.325987,0.114568 -0.657879,0.171261 -0.996857,0.171261 -0.487799,0 -0.884652,-0.211419 -1.19056,-0.631894 -0.307089,-0.420475 -0.460633,-0.961424 -0.460633,-1.62166 0,-0.731108 0.199608,-1.34529 0.600004,-1.84489 0.400397,-0.49961 0.89292,-0.748824 1.47875,-0.748824 0.34016,0 0.6378,0.0555122 0.894101,0.165355z"/>
  <path id="1234567891011121314151617181920" class="fil3" d="M149.296 41.7842l-0.285829 2.88663c0.341341,-0.411027 0.703942,-0.617721 1.08544,-0.617721 0.279923,0 0.498429,0.119292 0.657879,0.359058 0.158269,0.239765 0.238584,0.572839 0.238584,1.00276 0,0.118111 -0.00590555,0.239765 -0.0165355,0.367325l-0.294097 3.02719 -0.966149 0 0.292915 -2.99648c0.0165355,-0.178348 -0.00236222,-0.328349 -0.0578744,-0.448822 -0.05315,-0.119292 -0.134647,-0.179529 -0.242128,-0.179529 -0.22323,0 -0.491342,0.196064 -0.806699,0.587012l-0.291734 3.03782 -0.96733 0 0.688588 -7.02525 0.964967 0z"/>
  <path id="123456789101112131415161718192021" class="fil3" d="M151.591 48.0251c0,-0.235041 0.0602366,-0.438192 0.175985,-0.609453 0.118111,-0.17008 0.259844,-0.25512 0.4252,-0.25512 0.162993,0 0.303545,0.08504 0.422838,0.25512 0.11693,0.171261 0.177167,0.374412 0.177167,0.609453 0,0.238584 -0.0602366,0.440554 -0.177167,0.610634 -0.119292,0.17008 -0.259844,0.253939 -0.422838,0.253939 -0.165355,0 -0.307089,-0.0838589 -0.4252,-0.253939 -0.115749,-0.17008 -0.175985,-0.37205 -0.175985,-0.610634z"/>
  <path id="12345678910111213141516171819202122" class="fil3" d="M158.036 41.9306l-0.107481 1.12087c-0.204332,-0.150001 -0.386223,-0.225592 -0.54213,-0.225592 -0.4252,0 -0.65906,0.43583 -0.700399,1.30631l0.621264 0 -0.101576 1.03111 -0.628351 0 -0.557484 5.69768 -0.963786 0 0.558665 -5.69768 -0.65906 0 0.100394 -1.03111 0.662603 0c0.06378,-0.796069 0.231498,-1.40198 0.506696,-1.81773 0.274018,-0.413389 0.617721,-0.621264 1.03229,-0.621264 0.246852,0 0.506696,0.0791344 0.778352,0.237403z"/>
  <path id="1234567891011121314151617181920212223" class="fil3" d="M159.417 44.0531c0.472444,0 0.858667,0.203151 1.15867,0.609453 0.300002,0.408664 0.450003,0.938983 0.450003,1.59332 0,0.742919 -0.177167,1.37127 -0.5315,1.87915 -0.355514,0.509059 -0.791344,0.76536 -1.31103,0.76536 -0.460633,0 -0.846856,-0.218505 -1.16339,-0.654335 -0.315357,-0.43583 -0.472444,-0.969692 -0.472444,-1.59922 0,-0.707485 0.183072,-1.31694 0.550398,-1.82836 0.367325,-0.511421 0.809061,-0.76536 1.3193,-0.76536zm-0.226773 3.71577c0.24449,0 0.444098,-0.162993 0.600004,-0.485436 0.157088,-0.324805 0.23386,-0.679139 0.23386,-1.06891 0,-0.307089 -0.0590555,-0.556303 -0.177167,-0.746462 -0.119292,-0.188978 -0.27638,-0.283467 -0.472444,-0.283467 -0.257482,0 -0.460633,0.166537 -0.607091,0.49961 -0.14882,0.334254 -0.22323,0.681501 -0.22323,1.04292 0,0.316538 0.0661422,0.568114 0.196064,0.757092 0.129922,0.188978 0.279923,0.284648 0.450003,0.284648z"/>
  <path id="123456789101112131415161718192021222324" class="fil3" d="M163.045 44.1322l-0.0732289 0.66969 0.0129922 0.0200789c0.289372,-0.512602 0.551579,-0.768903 0.788982,-0.768903 0.183072,0 0.374412,0.17008 0.576382,0.511421l-0.450003 1.28741c-0.155907,-0.334254 -0.30827,-0.503153 -0.45709,-0.503153 -0.12756,0 -0.256301,0.0968511 -0.38268,0.28701 -0.128741,0.192521 -0.196064,0.322443 -0.204332,0.39331l-0.268112 2.78033 -0.966149 0 0.455909 -4.6772 0.96733 0z"/>
  <path id="12345678910111213141516171819202122232425" class="fil3" d="M167.165 41.7842l1.6193 0c0.813785,0 1.43623,0.3189 1.8697,0.9567 0.431105,0.636619 0.646068,1.45631 0.646068,2.46262 0,1.03702 -0.220868,1.89686 -0.661422,2.57955 -0.440554,0.685044 -0.987409,1.02639 -1.6382,1.02639l-2.51577 0 0.68032 -7.02525zm0.921266 1.17757l-0.450003 4.67484 0.969692 0c0.51024,0 0.907093,-0.229135 1.1941,-0.689769 0.285829,-0.461814 0.428743,-1.04883 0.428743,-1.76222 0,-0.657879 -0.147639,-1.19292 -0.442916,-1.60513 -0.295278,-0.412208 -0.695674,-0.617721 -1.20001,-0.617721l-0.49961 0z"/>
  <path id="1234567891011121314151617181920212223242526" class="fil3" d="M172.448 42.8365c0,-0.199608 0.0496066,-0.367325 0.146458,-0.507878 0.0980322,-0.140552 0.214962,-0.211419 0.353152,-0.211419 0.139371,0 0.257482,0.0708666 0.356695,0.211419 0.0968511,0.140552 0.145277,0.30827 0.145277,0.507878 0,0.200789 -0.0484255,0.370869 -0.145277,0.511421 -0.0992133,0.140552 -0.217324,0.211419 -0.356695,0.211419 -0.13819,0 -0.25512,-0.0708666 -0.353152,-0.211419 -0.0968511,-0.140552 -0.146458,-0.310632 -0.146458,-0.511421zm0.87166 1.29568l-0.45709 4.6772 -0.966149 0 0.45709 -4.6772 0.966149 0z"/>
  <path id="123456789101112131415161718192021222324252627" class="fil3" d="M175.664 43.2275l-0.0838589 0.904731c0.190159,-0.05315 0.388585,-0.0791344 0.594099,-0.0791344 0.422838,0 0.76536,0.185434 1.02757,0.559846 0.259844,0.374412 0.390948,0.866935 0.390948,1.47639 0,0.780714 -0.197245,1.4445 -0.592918,1.99017 -0.394491,0.548035 -0.875203,0.820872 -1.44096,0.820872 -0.12756,0 -0.272837,-0.0307089 -0.43583,-0.0909455l-0.229135 2.36813 -0.963786 0 0.512602 -5.30437c-0.190159,0.204332 -0.364963,0.458271 -0.523232,0.758273 -0.0838589,0.161812 -0.152363,0.242128 -0.206694,0.242128 -0.0366144,0 -0.0543311,-0.0307089 -0.0543311,-0.0909455 0,-0.140552 0.0720478,-0.396853 0.218505,-0.76536 0.144096,-0.370869 0.364963,-0.731108 0.660241,-1.07954l0.164174 -1.71025 0.962605 0zm-0.185434 1.91576l-0.243309 2.53466c0.0933077,0.0602366 0.190159,0.0909455 0.292915,0.0909455 0.338979,0 0.602366,-0.160631 0.787801,-0.483074 0.186615,-0.321262 0.278742,-0.711029 0.278742,-1.16576 0,-0.695674 -0.246852,-1.04174 -0.742919,-1.04174 -0.113387,0 -0.237403,0.0224411 -0.373231,0.0649611z"/>
  <polygon id="12345678910111213141516171819202122232425262728" class="fil3" points="179.871,41.7842 179.184,48.8094 178.22,48.8094 178.905,41.7842 "/>
  <path id="1234567891011121314151617181920212223242526272829" class="fil3" d="M182.108 44.0531c0.472444,0 0.858667,0.203151 1.15867,0.609453 0.300002,0.408664 0.450003,0.938983 0.450003,1.59332 0,0.742919 -0.177167,1.37127 -0.5315,1.87915 -0.355514,0.509059 -0.791344,0.76536 -1.31103,0.76536 -0.460633,0 -0.846856,-0.218505 -1.16339,-0.654335 -0.315357,-0.43583 -0.472444,-0.969692 -0.472444,-1.59922 0,-0.707485 0.183072,-1.31694 0.550398,-1.82836 0.367325,-0.511421 0.809061,-0.76536 1.3193,-0.76536zm-0.226773 3.71577c0.24449,0 0.444098,-0.162993 0.600004,-0.485436 0.157088,-0.324805 0.23386,-0.679139 0.23386,-1.06891 0,-0.307089 -0.0590555,-0.556303 -0.177167,-0.746462 -0.119292,-0.188978 -0.27638,-0.283467 -0.472444,-0.283467 -0.257482,0 -0.460633,0.166537 -0.607091,0.49961 -0.14882,0.334254 -0.22323,0.681501 -0.22323,1.04292 0,0.316538 0.0661422,0.568114 0.196064,0.757092 0.129922,0.188978 0.279923,0.284648 0.450003,0.284648z"/>
  <path id="123456789101112131415161718192021222324252627282930" class="fil3" d="M185.771 44.1322l-0.0555122 0.598823 0.0141733 0.02126c0.337798,-0.46772 0.675595,-0.699218 1.01221,-0.699218 0.448822,0 0.72284,0.285829 0.823234,0.855124 0.409845,-0.569295 0.801974,-0.855124 1.17875,-0.855124 0.298821,0 0.532681,0.132284 0.70158,0.398034 0.17008,0.268112 0.25512,0.62717 0.25512,1.07954 0,0.113387 -0.00826777,0.238584 -0.0200789,0.373231l-0.279923 2.90553 -0.962605 0 0.264569 -2.68939c0.0141733,-0.140552 0.02126,-0.269293 0.02126,-0.38268 0,-0.43583 -0.0933077,-0.654335 -0.279923,-0.654335 -0.226773,0 -0.48898,0.24449 -0.785439,0.729926l-0.291734 2.99648 -0.96733 0 0.251577 -2.67522c0.0141733,-0.164174 0.02126,-0.305908 0.02126,-0.427562 0,-0.415751 -0.100394,-0.623626 -0.300002,-0.623626 -0.207875,0 -0.461814,0.24449 -0.764179,0.729926l-0.292915 2.99648 -0.966149 0 0.45709 -4.6772 0.964967 0z"/>
  <path id="12345678910111213141516171819202122232425262728293031" class="fil3" d="M193.893 44.2078l-0.450003 4.60161 -0.963786 0 0.04252 -0.432287c-0.302364,0.348428 -0.614178,0.523232 -0.93544,0.523232 -0.328349,0 -0.598823,-0.188978 -0.814966,-0.56339 -0.213781,-0.375593 -0.322443,-0.856305 -0.322443,-1.44332 0,-0.838589 0.204332,-1.52009 0.609453,-2.04923 0.405121,-0.527956 0.986227,-0.791344 1.74214,-0.791344 0.376774,0 0.741737,0.0519689 1.09253,0.154725zm-1.28032 3.24451l0.214962 -2.22876c-0.0708666,-0.00944889 -0.140552,-0.0153544 -0.207875,-0.0153544 -0.386223,0 -0.677958,0.168899 -0.874022,0.506696 -0.196064,0.336617 -0.295278,0.753549 -0.295278,1.24962 0,0.281104 0.0413389,0.500791 0.126379,0.660241 0.0826777,0.15945 0.198427,0.238584 0.346065,0.238584 0.231498,0 0.460633,-0.137009 0.689769,-0.411027z"/>
  <path id="1234567891011121314151617181920212223242526272829303132" class="fil3" d="M199.875 42.2483l-0.144096 1.23544c-0.173623,-0.18071 -0.375593,-0.328349 -0.60591,-0.445279 -0.229135,-0.114568 -0.429924,-0.172442 -0.601185,-0.172442 -0.196064,0 -0.359058,0.0732289 -0.487799,0.219687 -0.131103,0.145277 -0.194883,0.32953 -0.194883,0.553941 0,0.133466 0.0342522,0.269293 0.108662,0.405121 0.0732289,0.135828 0.304727,0.370869 0.694493,0.707485 0.389767,0.334254 0.650792,0.663784 0.78662,0.986227 0.134647,0.324805 0.203151,0.661422 0.203151,1.00985 0,0.618902 -0.14882,1.13269 -0.44646,1.54135 -0.29764,0.406302 -0.699218,0.610634 -1.20473,0.610634 -0.638981,0 -1.19174,-0.22323 -1.6571,-0.66969l0.157088 -1.22127c0.209057,0.213781 0.441735,0.387404 0.699218,0.519689 0.257482,0.133466 0.483074,0.199608 0.677958,0.199608 0.2126,0 0.38268,-0.0708666 0.51024,-0.213781 0.12756,-0.141733 0.19134,-0.32953 0.19134,-0.561028 0,-0.160631 -0.0401578,-0.324805 -0.124017,-0.487799 -0.0814966,-0.164174 -0.3189,-0.420475 -0.711029,-0.768903 -0.392129,-0.349609 -0.649611,-0.670871 -0.772446,-0.966149 -0.124017,-0.295278 -0.185434,-0.600004 -0.185434,-0.91418 0,-0.604729 0.162993,-1.10906 0.487799,-1.51418 0.327168,-0.405121 0.734651,-0.609453 1.22599,-0.609453 0.490161,0 0.954337,0.185434 1.39253,0.555122z"/>
  <path id="123456789101112131415161718192021222324252627282930313233" class="fil3" d="M202.08 43.1472l-0.135828 0.985046 0.714572 0 -0.128741 1.03111 -0.71221 0 -0.188978 1.51418c-0.0141733,0.131103 -0.0236222,0.250395 -0.0236222,0.362601 0,0.412208 0.0968511,0.617721 0.289372,0.617721 0.11693,0 0.303545,-0.0944889 0.558665,-0.281104l0 1.22717c-0.283467,0.197245 -0.559846,0.296459 -0.830321,0.296459 -0.312994,0 -0.561028,-0.144096 -0.740556,-0.431105 -0.181891,-0.285829 -0.270474,-0.656698 -0.270474,-1.11379 0,-0.140552 0.00944889,-0.277561 0.0271655,-0.412208l0.226773 -1.77993 -0.655516 0 0.120473 -1.03111 0.656698 0 0.115749 -0.985046 0.976779 0z"/>
  <path id="12345678910111213141516171819202122232425262728293031323334" class="fil3" d="M206.569 44.1322l-0.45709 4.6772 -0.966149 0 0.0590555 -0.523232c-0.337798,0.402759 -0.688588,0.603548 -1.05001,0.603548 -0.302364,0 -0.535043,-0.126379 -0.70158,-0.38268 -0.165355,-0.253939 -0.248033,-0.600004 -0.248033,-1.03938 0,-0.115749 0.00708666,-0.237403 0.0177167,-0.367325l0.294097 -2.96813 0.964967 0 -0.24449 2.48506c-0.02126,0.211419 -0.0295278,0.39331 -0.0295278,0.548035 0,0.465358 0.09567,0.698036 0.289372,0.698036 0.248033,0 0.518508,-0.227954 0.811423,-0.682682l0.294097 -3.04845 0.966149 0z"/>
  <path id="1234567891011121314151617181920212223242526272829303132333435" class="fil3" d="M210.847 41.7842l-0.676776 6.96501c-0.412208,0.0992133 -0.784257,0.151182 -1.11733,0.151182 -0.57402,0 -1.02993,-0.20197 -1.37009,-0.609453 -0.337798,-0.405121 -0.506696,-0.948432 -0.506696,-1.63348 0,-0.721659 0.181891,-1.33584 0.546854,-1.84371 0.362601,-0.507878 0.851581,-0.760635 1.46694,-0.760635 0.0992133,0 0.256301,0.0153544 0.470082,0.0496066l0.22323 -2.31852 0.963786 0zm-1.54253 5.9339l0.236222 -2.42836c-0.0826777,-0.0177167 -0.164174,-0.0248033 -0.243309,-0.0248033 -0.344884,0 -0.617721,0.134647 -0.819691,0.40394 -0.203151,0.270474 -0.303545,0.602366 -0.303545,0.998039 0,0.338979 0.0767722,0.60591 0.231498,0.805517 0.154725,0.197245 0.366144,0.296459 0.634256,0.296459 0.0685044,0 0.157088,-0.0165355 0.264569,-0.0507878z"/>
  <path id="123456789101112131415161718192021222324252627282930313233343536" class="fil3" d="M211.701 42.8365c0,-0.199608 0.0496066,-0.367325 0.146458,-0.507878 0.0980322,-0.140552 0.214962,-0.211419 0.353152,-0.211419 0.139371,0 0.257482,0.0708666 0.356695,0.211419 0.0968511,0.140552 0.145277,0.30827 0.145277,0.507878 0,0.200789 -0.0484255,0.370869 -0.145277,0.511421 -0.0992133,0.140552 -0.217324,0.211419 -0.356695,0.211419 -0.13819,0 -0.25512,-0.0708666 -0.353152,-0.211419 -0.0968511,-0.140552 -0.146458,-0.310632 -0.146458,-0.511421zm0.87166 1.29568l-0.45709 4.6772 -0.966149 0 0.45709 -4.6772 0.966149 0z"/>
  <path id="12345678910111213141516171819202122232425262728293031323334353637" class="fil3" d="M216.283 46.6669l-2.12246 0c-0.0224411,0.369688 0.0366144,0.662603 0.175985,0.881109 0.139371,0.217324 0.328349,0.325987 0.568114,0.325987 0.264569,0 0.666146,-0.15945 1.20001,-0.477169l-0.17008 1.16576c-0.421657,0.224411 -0.79725,0.337798 -1.12796,0.337798 -0.491342,0 -0.88229,-0.205513 -1.17521,-0.620083 -0.292915,-0.411027 -0.439373,-0.962605 -0.439373,-1.65237 0,-0.715753 0.17008,-1.32284 0.512602,-1.82482 0.342522,-0.49961 0.75473,-0.750005 1.24253,-0.750005 0.420475,0 0.758273,0.178348 1.00985,0.539768 0.252758,0.360239 0.379137,0.835045 0.379137,1.4256 0,0.207875 -0.0177167,0.424019 -0.05315,0.64843zm-2.02679 -0.804336l1.13387 0c0.00708666,-0.0566933 0.00944889,-0.113387 0.00944889,-0.17008 0,-0.205513 -0.04252,-0.370869 -0.128741,-0.496066 -0.08504,-0.125198 -0.200789,-0.188978 -0.344884,-0.188978 -0.309451,0 -0.532681,0.284648 -0.66969,0.855124z"/>
  <path id="1234567891011121314151617181920212223242526272829303132333435363738" class="fil3" d="M219.286 44.4759l-0.0755911 1.09961c-0.168899,-0.119292 -0.342522,-0.216143 -0.524413,-0.285829 -0.181891,-0.0708666 -0.3189,-0.105119 -0.41457,-0.105119 -0.141733,0 -0.213781,0.0685044 -0.213781,0.205513 0,0.13819 0.128741,0.343703 0.383861,0.617721 0.292915,0.316538 0.481893,0.578744 0.566933,0.790163 0.0862211,0.211419 0.12756,0.421657 0.12756,0.633075 0,0.422838 -0.113387,0.771265 -0.34016,1.04765 -0.226773,0.274018 -0.517326,0.411027 -0.872841,0.411027 -0.370869,0 -0.7441,-0.140552 -1.12206,-0.421657l0.133466 -1.03702c0.396853,0.218505 0.69095,0.328349 0.887014,0.328349 0.211419,0 0.316538,-0.0862211 0.316538,-0.257482 0,-0.144096 -0.140552,-0.369688 -0.421657,-0.676776 -0.281104,-0.305908 -0.462995,-0.550398 -0.544492,-0.734651 -0.0814966,-0.181891 -0.121654,-0.356695 -0.121654,-0.524413 0,-0.445279 0.113387,-0.809061 0.34016,-1.09017 0.225592,-0.282285 0.517326,-0.422838 0.874022,-0.422838 0.336617,0 0.677958,0.140552 1.02166,0.422838z"/>
  <path class="fil3" d="M80.847 2.45671c0,0.445279 -0.13819,0.915361 -0.412208,1.41261 -0.363782,0.654335 -0.891739,1.16221 -1.58505,1.52363 -0.638981,0.32953 -1.32521,0.494885 -2.05986,0.494885l-1.07127 0 1.17639 -3.7453 1.17284 0 -0.998039 3.16183c0.426381,0 0.849219,-0.147639 1.26851,-0.441735 0.419294,-0.295278 0.725202,-0.65906 0.917723,-1.09135 0.172442,-0.38268 0.259844,-0.70158 0.259844,-0.957881 0,-0.418113 -0.105119,-0.718115 -0.311813,-0.901187 -0.186615,-0.160631 -0.472444,-0.240947 -0.858667,-0.240947l-3.14057 0 0.501972 -0.920085 3.14294 0c0.543311,0 0.995676,0.128741 1.3571,0.386223 0.427562,0.305908 0.640162,0.7441 0.640162,1.3193zm4.19649 2.84766c-0.0448822,0.187797 -0.14882,0.334254 -0.311813,0.441735 -0.144096,0.0944889 -0.310632,0.141733 -0.497248,0.141733l-1.80946 0c-1.05119,0 -1.57796,-0.355514 -1.57796,-1.06891 0,-0.458271 0.18071,-0.817329 0.539768,-1.07835 0.309451,-0.222049 0.676776,-0.334254 1.10434,-0.334254l0.471263 0c0.274018,0 0.516145,0.0472444 0.724021,0.141733 0.27638,0.126379 0.421657,0.3189 0.434649,0.576382 0.01063,0.261025 -0.100394,0.47835 -0.334254,0.649611l-1.07481 0 0.35079 -0.784257 -0.686225 0 -0.26575 0.879927c-0.0153544,0.0519689 -0.0224411,0.0980322 -0.0224411,0.139371 0,0.196064 0.140552,0.295278 0.421657,0.295278l2.53348 0zm4.32287 0c-0.108662,0.389767 -0.373231,0.583469 -0.796069,0.583469l-1.23662 0c-0.357877,0 -0.532681,-0.126379 -0.526775,-0.379137 -0.237403,0.314175 -0.557484,0.470082 -0.957881,0.470082 -0.262207,0 -0.474806,-0.0814966 -0.636619,-0.246852 -0.168899,-0.171261 -0.253939,-0.401578 -0.253939,-0.694493 0,-0.527956 0.19134,-0.941345 0.571658,-1.24135 0.336617,-0.261025 0.748824,-0.389767 1.2378,-0.389767l0.675595 0 0.607091 -1.92875 1.18229 0 -1.20828 3.8268 1.34174 0zm-2.10238 -1.31458l-0.824415 0 -0.245671 0.784257c-0.0224411,0.0732289 -0.0330711,0.139371 -0.0330711,0.198427 0,0.162993 0.0909455,0.266931 0.275199,0.310632 0.0661422,0.0129922 0.204332,0.02126 0.415751,0.02126l0.412208 -1.31458zm4.32995 -2.08112c0,0.243309 -0.0838589,0.450003 -0.252758,0.621264 -0.166537,0.168899 -0.368507,0.25512 -0.604729,0.25512 -0.240947,0 -0.444098,-0.0862211 -0.611815,-0.25512 -0.168899,-0.171261 -0.251577,-0.377955 -0.251577,-0.621264 0,-0.240947 0.0826777,-0.44646 0.251577,-0.61654 0.167718,-0.171261 0.370869,-0.256301 0.611815,-0.256301 0.236222,0 0.438192,0.08504 0.604729,0.256301 0.168899,0.17008 0.252758,0.375593 0.252758,0.61654zm0.23386 3.39569c-0.0555122,0.213781 -0.173623,0.37205 -0.35079,0.474806 -0.12756,0.0732289 -0.26575,0.108662 -0.415751,0.108662l-1.28269 0c-0.310632,0 -0.464176,-0.145277 -0.464176,-0.438192 0,-0.0826777 0.0153544,-0.171261 0.0448822,-0.26575l0.565752 -1.77757 1.17875 0 -0.601185 1.89804 1.32521 0zm4.06302 0c-0.0484255,0.190159 -0.147639,0.337798 -0.298821,0.441735 -0.13819,0.0944889 -0.300002,0.141733 -0.484255,0.141733l-1.95592 0c-0.37205,0 -0.685044,-0.0708666 -0.937802,-0.211419 -0.320081,-0.178348 -0.480712,-0.445279 -0.480712,-0.801974 0,-0.0401578 0.00236222,-0.0803155 0.00708666,-0.121654 0.04252,-0.43583 0.24449,-0.77599 0.603548,-1.02166 0.316538,-0.217324 0.689769,-0.324805 1.12087,-0.324805l0.81851 0c0.183072,0 0.34016,0.0649611 0.471263,0.196064 0.128741,0.131103 0.193702,0.291734 0.193702,0.483074 0,0.19134 -0.0661422,0.354333 -0.196064,0.487799 -0.131103,0.134647 -0.28701,0.200789 -0.468901,0.200789 -0.184253,0 -0.34016,-0.0673233 -0.468901,-0.20197 -0.129922,-0.135828 -0.193702,-0.300002 -0.19134,-0.494885 0,0 0,-0.0295278 0,-0.0874022l-0.392129 0 -0.253939 0.806699c-0.02126,0.0685044 -0.03189,0.131103 -0.03189,0.185434 0,0.214962 0.150001,0.322443 0.451184,0.322443l2.49451 0zm4.15042 0c-0.105119,0.389767 -0.369688,0.583469 -0.796069,0.583469l-1.23072 0c-0.35079,0 -0.526775,-0.126379 -0.526775,-0.379137 -0.235041,0.301183 -0.525594,0.453546 -0.870479,0.453546 -0.252758,0 -0.458271,-0.0885833 -0.61654,-0.263388 -0.158269,-0.175985 -0.236222,-0.405121 -0.236222,-0.686225 0,-0.509059 0.172442,-0.911817 0.519689,-1.20591 0.312994,-0.266931 0.70158,-0.400397 1.16458,-0.400397l1.85552 0 -0.611815 1.89804 1.34883 0zm-2.09411 -1.31458l-0.719296 0 -0.226773 0.8504c-0.0129922,0.05315 -0.0200789,0.102757 -0.0200789,0.146458 0,0.211419 0.184253,0.317719 0.55276,0.317719l0.413389 -1.31458zm4.97484 1.31458c-0.101576,0.389767 -0.37205,0.583469 -0.812604,0.583469l-1.65592 0c-0.320081,0 -0.481893,-0.126379 -0.481893,-0.379137 0,-0.0625989 0.0129922,-0.131103 0.0377955,-0.204332l0.412208 -1.31458 -0.533862 0 0.205513 -0.583469c0.379137,-0.109843 0.65906,-0.249214 0.843313,-0.420475 0.209057,-0.19134 0.429924,-0.540949 0.666146,-1.0441l0.633075 0 -0.45709 1.46458 0.837407 0c-0.133466,0.388585 -0.406302,0.583469 -0.81851,0.583469l-0.214962 0 -0.405121 1.31458 1.7445 0zm4.08192 0c-0.0448822,0.187797 -0.150001,0.334254 -0.312994,0.441735 -0.144096,0.0944889 -0.309451,0.141733 -0.496066,0.141733l-1.80946 0c-1.05237,0 -1.57796,-0.355514 -1.57796,-1.06891 0,-0.458271 0.18071,-0.817329 0.539768,-1.07835 0.309451,-0.222049 0.676776,-0.334254 1.10316,-0.334254l0.471263 0c0.275199,0 0.517326,0.0472444 0.724021,0.141733 0.277561,0.126379 0.422838,0.3189 0.43583,0.576382 0.01063,0.261025 -0.100394,0.47835 -0.334254,0.649611l-1.07599 0 0.351971 -0.784257 -0.686225 0 -0.26575 0.879927c-0.0165355,0.0519689 -0.0224411,0.0980322 -0.0224411,0.139371 0,0.196064 0.140552,0.295278 0.420475,0.295278l2.53466 0zm4.32287 0c-0.108662,0.389767 -0.374412,0.583469 -0.796069,0.583469l-1.2378 0c-0.356695,0 -0.5315,-0.126379 -0.526775,-0.379137 -0.236222,0.314175 -0.557484,0.470082 -0.9567,0.470082 -0.262207,0 -0.474806,-0.0814966 -0.636619,-0.246852 -0.168899,-0.171261 -0.253939,-0.401578 -0.253939,-0.694493 0,-0.527956 0.190159,-0.941345 0.571658,-1.24135 0.336617,-0.261025 0.748824,-0.389767 1.2378,-0.389767l0.675595 0 0.607091 -1.92875 1.18229 0 -1.20828 3.8268 1.34174 0zm-2.10238 -1.31458l-0.824415 0 -0.246852 0.784257c-0.02126,0.0732289 -0.0330711,0.139371 -0.0330711,0.198427 0,0.162993 0.0921266,0.266931 0.27638,0.310632 0.0649611,0.0129922 0.204332,0.02126 0.415751,0.02126l0.412208 -1.31458zm11.0139 -3.23861l-0.49961 0.920085 -1.15158 0 -0.538586 1.73505 1.04646 0c-0.0307089,0.383861 -0.237403,0.578744 -0.620083,0.583469l-0.610634 0.00708666 -0.252758 0.806699c-0.225592,0.72284 -0.672052,1.08426 -1.3382,1.08426l-2.27364 0c0.0944889,-0.272837 0.178348,-0.465358 0.249214,-0.579925 0.126379,-0.20197 0.274018,-0.303545 0.441735,-0.303545 0.0259844,0 0.05315,0.00236222 0.0814966,0.00826777l1.51655 0.270474 1.12442 -3.61184 -1.85789 0c-0.279923,0 -0.530319,0.0909455 -0.75473,0.274018 -0.240947,0.199608 -0.363782,0.450003 -0.363782,0.751186 0,0.209057 0.06378,0.32953 0.188978,0.359058 0.0413389,-0.226773 0.147639,-0.408664 0.317719,-0.544492 0.160631,-0.131103 0.344884,-0.197245 0.55276,-0.197245 0.225592,0 0.419294,0.0779533 0.58465,0.23386 0.178348,0.165355 0.266931,0.379137 0.266931,0.642524 0,0.291734 -0.107481,0.519689 -0.3189,0.682682 -0.181891,0.141733 -0.407483,0.2126 -0.677958,0.2126 -0.418113,0 -0.766541,-0.109843 -1.04292,-0.32953 -0.307089,-0.245671 -0.461814,-0.58465 -0.461814,-1.01457 0,-0.644886 0.227954,-1.14922 0.681501,-1.51182 0.401578,-0.3189 0.900006,-0.47835 1.49529,-0.47835l4.21538 0zm3.26341 4.55318c-0.103938,0.389767 -0.368507,0.583469 -0.796069,0.583469l-1.22954 0c-0.35079,0 -0.526775,-0.126379 -0.526775,-0.379137 -0.235041,0.301183 -0.525594,0.453546 -0.870479,0.453546 -0.252758,0 -0.459452,-0.0885833 -0.61654,-0.263388 -0.158269,-0.175985 -0.237403,-0.405121 -0.237403,-0.686225 0,-0.509059 0.173623,-0.911817 0.519689,-1.20591 0.314175,-0.266931 0.70158,-0.400397 1.16576,-0.400397l1.85434 0 -0.610634 1.89804 1.34765 0zm-2.09411 -1.31458l-0.718115 0 -0.226773 0.8504c-0.0141733,0.05315 -0.0200789,0.102757 -0.0200789,0.146458 0,0.211419 0.183072,0.317719 0.551579,0.317719l0.413389 -1.31458zm6.15122 1.31458c-0.0484255,0.190159 -0.147639,0.337798 -0.298821,0.441735 -0.13819,0.0944889 -0.300002,0.141733 -0.484255,0.141733l-1.95592 0c-0.37205,0 -0.685044,-0.0708666 -0.937802,-0.211419 -0.320081,-0.178348 -0.480712,-0.445279 -0.480712,-0.801974 0,-0.0401578 0.00236222,-0.0803155 0.00590555,-0.121654 0.0437011,-0.43583 0.245671,-0.77599 0.604729,-1.02166 0.316538,-0.217324 0.689769,-0.324805 1.12087,-0.324805l0.81851 0c0.183072,0 0.34016,0.0649611 0.471263,0.196064 0.128741,0.131103 0.193702,0.291734 0.193702,0.483074 0,0.19134 -0.0661422,0.354333 -0.196064,0.487799 -0.131103,0.134647 -0.28701,0.200789 -0.468901,0.200789 -0.184253,0 -0.341341,-0.0673233 -0.468901,-0.20197 -0.129922,-0.135828 -0.193702,-0.300002 -0.19134,-0.494885 0,0 0,-0.0295278 0,-0.0874022l-0.392129 0 -0.253939 0.806699c-0.02126,0.0685044 -0.03189,0.131103 -0.03189,0.185434 0,0.214962 0.150001,0.322443 0.451184,0.322443l2.49451 0zm4.26381 0c-0.0448822,0.20197 -0.145277,0.354333 -0.298821,0.459452 -0.120473,0.0838589 -0.249214,0.124017 -0.386223,0.124017l-1.3571 0c-0.3189,0 -0.47835,-0.114568 -0.47835,-0.342522 -0.168899,0.227954 -0.396853,0.342522 -0.685044,0.342522l-0.571658 0c-0.175985,0 -0.311813,-0.0507878 -0.409845,-0.152363 -0.0909455,-0.09567 -0.135828,-0.220868 -0.135828,-0.376774 0,-0.0874022 0.0153544,-0.177167 0.0448822,-0.270474l0.545673 -1.6819 1.17993 0 -0.608272 1.89804 0.660241 0 0.603548 -1.89804 1.16694 0 -0.591736 1.89804 1.32166 0zm2.50159 0c-0.0543311,0.213781 -0.179529,0.37205 -0.373231,0.474806 -0.137009,0.0732289 -0.283467,0.108662 -0.439373,0.108662l-1.2508 0c-0.320081,0 -0.479531,-0.122836 -0.479531,-0.368507 0,-0.06378 0.01063,-0.134647 0.0354333,-0.214962l1.20473 -3.81853 1.14922 0 -1.21182 3.81853 1.36536 0zm2.86065 0c-0.101576,0.389767 -0.37205,0.583469 -0.812604,0.583469l-1.65592 0c-0.320081,0 -0.480712,-0.126379 -0.480712,-0.379137 0,-0.0625989 0.0118111,-0.131103 0.0366144,-0.204332l0.412208 -1.31458 -0.533862 0 0.205513 -0.583469c0.379137,-0.109843 0.660241,-0.249214 0.843313,-0.420475 0.209057,-0.19134 0.431105,-0.540949 0.666146,-1.0441l0.633075 0 -0.45709 1.46458 0.837407 0c-0.133466,0.388585 -0.406302,0.583469 -0.817329,0.583469l-0.214962 0 -0.406302 1.31458 1.7445 0zm4.32168 0c-0.12756,0.389767 -0.367325,0.583469 -0.716934,0.583469l-0.792525 0c-0.188978,0.575201 -0.387404,1.00158 -0.594099,1.27796 -0.290553,0.385042 -0.650792,0.577563 -1.0819,0.577563 -0.271655,0 -0.479531,-0.0885833 -0.62717,-0.266931 -0.12756,-0.155907 -0.19134,-0.356695 -0.19134,-0.602366 0,-0.193702 0.0377955,-0.383861 0.112206,-0.565752 0.07441,-0.183072 0.172442,-0.322443 0.292915,-0.420475l-0.245671 0c-0.142914,0 -0.262207,-0.0496066 -0.355514,-0.147639 -0.0944889,-0.0980322 -0.141733,-0.222049 -0.141733,-0.369688 0,-0.0685044 0.01063,-0.13819 0.0330711,-0.209057l0.56339 -1.75513 1.17993 0 -0.607091 1.89804 0.65906 0 0.597642 -1.89804 1.17284 0 -0.598823 1.89804 1.34174 0zm-2.71774 0.682682c-0.142914,0 -0.275199,0.0909455 -0.398034,0.271655 -0.122836,0.181891 -0.183072,0.362601 -0.183072,0.54213 0,0.160631 0.0625989,0.290553 0.187797,0.387404l0.39331 -1.20119zm10.4186 -4.34413c0,0.25512 -0.0897644,0.470082 -0.269293,0.644886 -0.17008,0.165355 -0.370869,0.249214 -0.600004,0.249214 -0.232679,0 -0.434649,-0.0838589 -0.608272,-0.249214 -0.179529,-0.174804 -0.269293,-0.389767 -0.269293,-0.644886 0,-0.0862211 0.00944889,-0.158269 0.0259844,-0.219687 -0.462995,0.00472444 -0.884652,0.275199 -1.26261,0.810242 -0.356695,0.506696 -0.533862,1.02757 -0.533862,1.56261 0,1.00513 0.58465,1.50828 1.75041,1.50828l1.63466 0c-0.0673233,0.389767 -0.330711,0.583469 -0.790163,0.583469l-1.19765 0c-0.747643,0 -1.35355,-0.121654 -1.81891,-0.364963 -0.638981,-0.336617 -0.954337,-0.88229 -0.948432,-1.6382 0.00472444,-0.424019 0.120473,-0.848037 0.347247,-1.27206 0.310632,-0.578744 0.748824,-1.03583 1.3193,-1.37245 0.551579,-0.325987 1.13859,-0.48898 1.75985,-0.48898l0.649611 0c0.210238,0 0.396853,0.0897644 0.56339,0.270474 0.165355,0.179529 0.248033,0.386223 0.248033,0.621264zm5.37523 1.7634c-0.0862211,0.388585 -0.346065,0.583469 -0.779533,0.583469l-2.03269 0c0.0708666,0.0543311 0.128741,0.151182 0.174804,0.292915 0.0448822,0.144096 0.06378,0.266931 0.0555122,0.37205 -0.0307089,0.406302 -0.190159,0.725202 -0.477169,0.955519 -0.275199,0.222049 -0.633075,0.334254 -1.07127,0.336617 -0.511421,0.00472444 -0.904731,-0.108662 -1.17993,-0.34016 -0.24449,-0.204332 -0.367325,-0.472444 -0.367325,-0.806699 0,-0.0661422 0.00590555,-0.132284 0.0165355,-0.196064 0.0566933,-0.368507 0.218505,-0.656698 0.486618,-0.866935 0.285829,-0.220868 0.667328,-0.330711 1.1445,-0.330711l4.02995 0zm-3.53979 0.583469l-0.7441 0 -0.292915 0.93544c-0.0141733,0.0484255 -0.0224411,0.0944889 -0.0224411,0.13819 0,0.209057 0.173623,0.314175 0.52087,0.314175 0.0401578,0 0.0755911,-0.00118111 0.1063,-0.00354333l0.432287 -1.38426zm8.24179 1.31458c-0.0614178,0.389767 -0.30827,0.583469 -0.737013,0.583469l-1.31812 0c-0.103938,0 -0.199608,-0.0484255 -0.288191,-0.144096 -0.0874022,-0.09567 -0.131103,-0.204332 -0.131103,-0.325987 0,-0.0389767 0.00472444,-0.0767722 0.0129922,-0.113387 0.0472444,-0.179529 0.119292,-0.441735 0.214962,-0.785439l-1.09725 1.03347c-0.277561,0.257482 -0.514964,0.387404 -0.71221,0.387404 -0.295278,0 -0.441735,-0.125198 -0.441735,-0.373231 0,-0.0791344 0.0165355,-0.167718 0.0496066,-0.262207l0.258663 -0.785439 -1.29214 1.213c-0.111024,0.103938 -0.248033,0.155907 -0.412208,0.155907l-0.662603 0 0.77599 -2.48151 1.17284 0 -0.367325 1.16694 0.996857 -0.918904c0.249214,-0.232679 0.527956,-0.347247 0.837407,-0.347247 0.256301,0 0.383861,0.111024 0.383861,0.331892 0,0.06378 -0.0118111,0.133466 -0.0354333,0.207875l-0.23386 0.726383 0.970873 -0.927172c0.236222,-0.225592 0.498429,-0.338979 0.78662,-0.338979 0.271655,0 0.408664,0.129922 0.408664,0.389767 0,0.0874022 -0.0177167,0.186615 -0.0519689,0.292915l-0.419294 1.31458 1.33111 0zm6.3591 0c-0.0614178,0.389767 -0.30827,0.583469 -0.737013,0.583469l-1.31812 0c-0.103938,0 -0.199608,-0.0484255 -0.288191,-0.144096 -0.0874022,-0.09567 -0.131103,-0.204332 -0.131103,-0.325987 0,-0.0389767 0.00472444,-0.0767722 0.0118111,-0.113387 0.0484255,-0.179529 0.120473,-0.441735 0.216143,-0.785439l-1.09843 1.03347c-0.27638,0.257482 -0.513783,0.387404 -0.711029,0.387404 -0.295278,0 -0.441735,-0.125198 -0.441735,-0.373231 0,-0.0791344 0.0153544,-0.167718 0.0484255,-0.262207l0.259844 -0.785439 -1.29214 1.213c-0.111024,0.103938 -0.249214,0.155907 -0.412208,0.155907l-0.663784 0 0.77599 -2.48151 1.17284 0 -0.366144 1.16694 0.996857 -0.918904c0.249214,-0.232679 0.527956,-0.347247 0.837407,-0.347247 0.256301,0 0.383861,0.111024 0.383861,0.331892 0,0.06378 -0.0129922,0.133466 -0.0354333,0.207875l-0.23386 0.726383 0.970873 -0.927172c0.236222,-0.225592 0.497248,-0.338979 0.785439,-0.338979 0.272837,0 0.409845,0.129922 0.409845,0.389767 0,0.0874022 -0.0177167,0.186615 -0.0519689,0.292915l-0.419294 1.31458 1.33111 0zm2.23348 -3.39569c0,0.243309 -0.0826777,0.450003 -0.251577,0.621264 -0.166537,0.168899 -0.368507,0.25512 -0.604729,0.25512 -0.240947,0 -0.445279,-0.0862211 -0.611815,-0.25512 -0.168899,-0.171261 -0.251577,-0.377955 -0.251577,-0.621264 0,-0.240947 0.0826777,-0.44646 0.251577,-0.61654 0.166537,-0.171261 0.370869,-0.256301 0.611815,-0.256301 0.236222,0 0.438192,0.08504 0.604729,0.256301 0.168899,0.17008 0.251577,0.375593 0.251577,0.61654zm0.23386 3.39569c-0.0543311,0.213781 -0.172442,0.37205 -0.349609,0.474806 -0.12756,0.0732289 -0.26575,0.108662 -0.415751,0.108662l-1.28269 0c-0.310632,0 -0.464176,-0.145277 -0.464176,-0.438192 0,-0.0826777 0.0153544,-0.171261 0.0448822,-0.26575l0.565752 -1.77757 1.17875 0 -0.601185 1.89804 1.32403 0zm2.88782 0c-0.101576,0.389767 -0.37205,0.583469 -0.812604,0.583469l-1.65592 0c-0.320081,0 -0.480712,-0.126379 -0.480712,-0.379137 0,-0.0625989 0.0118111,-0.131103 0.0366144,-0.204332l0.412208 -1.31458 -0.532681 0 0.204332 -0.583469c0.379137,-0.109843 0.660241,-0.249214 0.844494,-0.420475 0.207875,-0.19134 0.429924,-0.540949 0.664965,-1.0441l0.633075 0 -0.45709 1.46458 0.837407 0c-0.133466,0.388585 -0.406302,0.583469 -0.817329,0.583469l-0.214962 0 -0.406302 1.31458 1.7445 0zm2.88782 0c-0.102757,0.389767 -0.373231,0.583469 -0.812604,0.583469l-1.6571 0c-0.320081,0 -0.480712,-0.126379 -0.480712,-0.379137 0,-0.0625989 0.0118111,-0.131103 0.0366144,-0.204332l0.412208 -1.31458 -0.532681 0 0.204332 -0.583469c0.379137,-0.109843 0.660241,-0.249214 0.844494,-0.420475 0.207875,-0.19134 0.429924,-0.540949 0.666146,-1.0441l0.633075 0 -0.458271 1.46458 0.838589 0c-0.134647,0.388585 -0.407483,0.583469 -0.81851,0.583469l-0.214962 0 -0.406302 1.31458 1.74568 0zm4.08192 0c-0.0460633,0.187797 -0.150001,0.334254 -0.312994,0.441735 -0.144096,0.0944889 -0.310632,0.141733 -0.497248,0.141733l-1.80828 0c-1.05237,0 -1.57914,-0.355514 -1.57914,-1.06891 0,-0.458271 0.18071,-0.817329 0.539768,-1.07835 0.309451,-0.222049 0.677958,-0.334254 1.10434,-0.334254l0.471263 0c0.275199,0 0.516145,0.0472444 0.724021,0.141733 0.27638,0.126379 0.421657,0.3189 0.43583,0.576382 0.00944889,0.261025 -0.101576,0.47835 -0.335435,0.649611l-1.07481 0 0.35079 -0.784257 -0.686225 0 -0.26575 0.879927c-0.0153544,0.0519689 -0.0224411,0.0980322 -0.0224411,0.139371 0,0.196064 0.140552,0.295278 0.421657,0.295278l2.53466 0zm4.32168 0c-0.108662,0.389767 -0.373231,0.583469 -0.796069,0.583469l-1.23662 0c-0.357877,0 -0.532681,-0.126379 -0.526775,-0.379137 -0.237403,0.314175 -0.557484,0.470082 -0.957881,0.470082 -0.262207,0 -0.474806,-0.0814966 -0.636619,-0.246852 -0.167718,-0.171261 -0.253939,-0.401578 -0.253939,-0.694493 0,-0.527956 0.19134,-0.941345 0.572839,-1.24135 0.335435,-0.261025 0.747643,-0.389767 1.23662,-0.389767l0.676776 0 0.60591 -1.92875 1.18347 0 -1.20946 3.8268 1.34174 0zm-2.1012 -1.31458l-0.825596 0 -0.245671 0.784257c-0.0224411,0.0732289 -0.0330711,0.139371 -0.0330711,0.198427 0,0.162993 0.0921266,0.266931 0.275199,0.310632 0.0661422,0.0129922 0.204332,0.02126 0.415751,0.02126l0.413389 -1.31458zm9.96149 -2.36222c0,0.239765 -0.08504,0.44646 -0.251577,0.61654 -0.168899,0.171261 -0.373231,0.256301 -0.612996,0.256301 -0.236222,0 -0.438192,-0.08504 -0.60591,-0.256301 -0.167718,-0.17008 -0.251577,-0.376774 -0.251577,-0.61654 0,-0.112206 0.0141733,-0.209057 0.0460633,-0.291734l-0.383861 0c-0.122836,0 -0.227954,0.0566933 -0.314175,0.173623 -0.08504,0.115749 -0.12756,0.243309 -0.12756,0.385042 0,0.114568 0.0342522,0.277561 0.103938,0.490161 0.0696855,0.213781 0.103938,0.376774 0.103938,0.491342 0,0.135828 -0.125198,0.272837 -0.376774,0.408664 -0.36142,0.194883 -0.59528,0.342522 -0.70158,0.442916 -0.252758,0.237403 -0.379137,0.551579 -0.379137,0.940164 0,0.292915 0.146458,0.483074 0.440554,0.571658 0.145277,0.0437011 0.398034,0.0649611 0.757092,0.0649611l2.36813 0c-0.0283467,0.187797 -0.12756,0.335435 -0.296459,0.445279 -0.146458,0.0921266 -0.311813,0.13819 -0.496066,0.13819l-2.66695 0c-0.398034,0 -0.735832,-0.0767722 -1.00985,-0.230317 -0.355514,-0.199608 -0.532681,-0.498429 -0.532681,-0.896463 0,-0.434649 0.192521,-0.82914 0.577563,-1.18702 0.316538,-0.292915 0.688588,-0.505515 1.11733,-0.638981 -0.122836,-0.304727 -0.185434,-0.581106 -0.185434,-0.82914 0,-0.474806 0.22323,-0.832683 0.66969,-1.07245 0.343703,-0.188978 0.753549,-0.282285 1.22717,-0.282285l0.990952 0c0.218505,0 0.405121,0.0874022 0.559846,0.261025 0.152363,0.173623 0.230317,0.379137 0.230317,0.615359zm4.16223 3.6768c-0.108662,0.389767 -0.373231,0.583469 -0.796069,0.583469l-1.23662 0c-0.356695,0 -0.532681,-0.126379 -0.526775,-0.379137 -0.237403,0.314175 -0.557484,0.470082 -0.957881,0.470082 -0.261025,0 -0.474806,-0.0814966 -0.636619,-0.246852 -0.167718,-0.171261 -0.253939,-0.401578 -0.253939,-0.694493 0,-0.527956 0.19134,-0.941345 0.572839,-1.24135 0.335435,-0.261025 0.747643,-0.389767 1.23662,-0.389767l0.676776 0 0.60591 -1.92875 1.18347 0 -1.20946 3.8268 1.34174 0zm-2.1012 -1.31458l-0.825596 0 -0.245671 0.784257c-0.0224411,0.0732289 -0.0330711,0.139371 -0.0330711,0.198427 0,0.162993 0.0921266,0.266931 0.27638,0.310632 0.0649611,0.0129922 0.203151,0.02126 0.41457,0.02126l0.413389 -1.31458zm6.39808 1.31458c-0.0448822,0.20197 -0.145277,0.354333 -0.298821,0.459452 -0.121654,0.0838589 -0.249214,0.124017 -0.386223,0.124017l-1.35828 0c-0.317719,0 -0.477169,-0.114568 -0.477169,-0.342522 -0.168899,0.227954 -0.396853,0.342522 -0.685044,0.342522l-0.571658 0c-0.175985,0 -0.311813,-0.0507878 -0.409845,-0.152363 -0.0909455,-0.09567 -0.135828,-0.220868 -0.135828,-0.376774 0,-0.0874022 0.0153544,-0.177167 0.0448822,-0.270474l0.545673 -1.6819 1.17993 0 -0.608272 1.89804 0.660241 0 0.603548 -1.89804 1.16694 0 -0.592918 1.89804 1.32284 0zm4.05003 0c-0.0472444,0.190159 -0.147639,0.337798 -0.298821,0.441735 -0.13819,0.0944889 -0.300002,0.141733 -0.484255,0.141733l-1.95474 0c-0.373231,0 -0.685044,-0.0708666 -0.937802,-0.211419 -0.321262,-0.178348 -0.481893,-0.445279 -0.481893,-0.801974 0,-0.0401578 0.00236222,-0.0803155 0.00708666,-0.121654 0.04252,-0.43583 0.24449,-0.77599 0.603548,-1.02166 0.316538,-0.217324 0.689769,-0.324805 1.12087,-0.324805l0.81851 0c0.184253,0 0.34016,0.0649611 0.471263,0.196064 0.129922,0.131103 0.193702,0.291734 0.193702,0.483074 0,0.19134 -0.0649611,0.354333 -0.196064,0.487799 -0.131103,0.134647 -0.28701,0.200789 -0.468901,0.200789 -0.184253,0 -0.34016,-0.0673233 -0.468901,-0.20197 -0.129922,-0.135828 -0.192521,-0.300002 -0.19134,-0.494885 0,0 0,-0.0295278 0,-0.0874022l-0.392129 0 -0.253939 0.806699c-0.02126,0.0685044 -0.03189,0.131103 -0.03189,0.185434 0,0.214962 0.151182,0.322443 0.451184,0.322443l2.49451 0zm4.15042 0c-0.103938,0.389767 -0.369688,0.583469 -0.796069,0.583469l-1.23072 0c-0.349609,0 -0.526775,-0.126379 -0.526775,-0.379137 -0.235041,0.301183 -0.524413,0.453546 -0.869297,0.453546 -0.252758,0 -0.459452,-0.0885833 -0.61654,-0.263388 -0.158269,-0.175985 -0.237403,-0.405121 -0.237403,-0.686225 0,-0.509059 0.172442,-0.911817 0.519689,-1.20591 0.314175,-0.266931 0.70158,-0.400397 1.16576,-0.400397l1.85434 0 -0.610634 1.89804 1.34765 0zm-2.09411 -1.31458l-0.718115 0 -0.227954 0.8504c-0.0129922,0.05315 -0.0200789,0.102757 -0.0200789,0.146458 0,0.211419 0.184253,0.317719 0.55276,0.317719l0.413389 -1.31458zm4.97484 1.31458c-0.101576,0.389767 -0.37205,0.583469 -0.811423,0.583469l-1.6571 0c-0.320081,0 -0.480712,-0.126379 -0.480712,-0.379137 0,-0.0625989 0.0118111,-0.131103 0.0366144,-0.204332l0.412208 -1.31458 -0.533862 0 0.205513 -0.583469c0.379137,-0.109843 0.660241,-0.249214 0.843313,-0.420475 0.209057,-0.19134 0.431105,-0.540949 0.667328,-1.0441l0.631894 0 -0.45709 1.46458 0.837407 0c-0.133466,0.388585 -0.406302,0.583469 -0.817329,0.583469l-0.214962 0 -0.406302 1.31458 1.7445 0zm2.23939 -3.39569c0,0.243309 -0.0826777,0.450003 -0.251577,0.621264 -0.166537,0.168899 -0.368507,0.25512 -0.604729,0.25512 -0.240947,0 -0.444098,-0.0862211 -0.611815,-0.25512 -0.168899,-0.171261 -0.251577,-0.377955 -0.251577,-0.621264 0,-0.240947 0.0826777,-0.44646 0.251577,-0.61654 0.167718,-0.171261 0.370869,-0.256301 0.611815,-0.256301 0.236222,0 0.438192,0.08504 0.604729,0.256301 0.168899,0.17008 0.251577,0.375593 0.251577,0.61654zm0.235041 3.39569c-0.0555122,0.213781 -0.173623,0.37205 -0.35079,0.474806 -0.12756,0.0732289 -0.26575,0.108662 -0.415751,0.108662l-1.28269 0c-0.310632,0 -0.464176,-0.145277 -0.464176,-0.438192 0,-0.0826777 0.0153544,-0.171261 0.0448822,-0.26575l0.565752 -1.77757 1.17875 0 -0.601185 1.89804 1.32521 0zm5.52642 -1.89804c-0.0862211,0.388585 -0.346065,0.583469 -0.779533,0.583469l-2.03269 0c0.0720478,0.0543311 0.129922,0.151182 0.174804,0.292915 0.0460633,0.144096 0.0649611,0.266931 0.0555122,0.37205 -0.0295278,0.406302 -0.188978,0.725202 -0.475988,0.955519 -0.275199,0.222049 -0.633075,0.334254 -1.07245,0.336617 -0.511421,0.00472444 -0.904731,-0.108662 -1.17993,-0.34016 -0.243309,-0.204332 -0.366144,-0.472444 -0.366144,-0.806699 0,-0.0661422 0.00472444,-0.132284 0.0165355,-0.196064 0.0566933,-0.368507 0.218505,-0.656698 0.486618,-0.866935 0.285829,-0.220868 0.667328,-0.330711 1.14332,-0.330711l4.02995 0zm-3.53979 0.583469l-0.742919 0 -0.292915 0.93544c-0.0141733,0.0484255 -0.0224411,0.0944889 -0.0224411,0.13819 0,0.209057 0.172442,0.314175 0.519689,0.314175 0.0413389,0 0.0767722,-0.00118111 0.1063,-0.00354333l0.432287 -1.38426zm6.32721 1.31458c-0.0566933,0.213781 -0.18071,0.37205 -0.373231,0.474806 -0.137009,0.0732289 -0.283467,0.108662 -0.439373,0.108662l-1.29568 0c-0.296459,0 -0.445279,-0.108662 -0.445279,-0.328349 0,-0.0720478 0.0153544,-0.158269 0.0460633,-0.25512l0.246852 -0.785439 -1.11733 1.063c-0.262207,0.204332 -0.477169,0.305908 -0.646068,0.305908l-0.597642 0 0.77599 -2.48151 1.17284 0 -0.368507 1.16694 0.992133 -0.911817c0.268112,-0.245671 0.558665,-0.363782 0.872841,-0.354333 0.2126,0.01063 0.3189,0.135828 0.3189,0.379137 0,0.0909455 -0.0177167,0.192521 -0.05315,0.303545l-0.418113 1.31458 1.32875 0z"/>
 </g>
</svg>
